<svg width="46" height="46" viewBox="0 0 46 46" fill="none" xmlns="http://www.w3.org/2000/svg">
<path d="M16.1002 32.5833L23.0002 25.6833L29.9002 32.5833L32.5835 29.8999L25.6835 22.9999L32.5835 16.0999L29.9002 13.4166L23.0002 20.3166L16.1002 13.4166L13.4168 16.0999L20.3168 22.9999L13.4168 29.8999L16.1002 32.5833ZM23.0002 42.1666C20.3488 42.1666 17.8571 41.6631 15.5252 40.6563C13.1932 39.6494 11.1647 38.2841 9.43975 36.5603C7.71475 34.8366 6.34944 32.8081 5.34383 30.4749C4.33822 28.1417 3.83478 25.65 3.8335 22.9999C3.83222 20.3498 4.33567 17.8581 5.34383 15.5249C6.352 13.1917 7.7173 11.1632 9.43975 9.4395C11.1622 7.71578 13.1907 6.35047 15.5252 5.34359C17.8597 4.3367 20.3513 3.83325 23.0002 3.83325C25.649 3.83325 28.1407 4.3367 30.4752 5.34359C32.8097 6.35047 34.8381 7.71578 36.5606 9.4395C38.283 11.1632 39.649 13.1917 40.6584 15.5249C41.6679 17.8581 42.1707 20.3498 42.1668 22.9999C42.163 25.65 41.6596 28.1417 40.6565 30.4749C39.6534 32.8081 38.2881 34.8366 36.5606 36.5603C34.833 38.2841 32.8046 39.65 30.4752 40.6582C28.1458 41.6663 25.6541 42.1691 23.0002 42.1666ZM23.0002 38.3333C27.2807 38.3333 30.9064 36.8478 33.8772 33.877C36.8481 30.9062 38.3335 27.2805 38.3335 22.9999C38.3335 18.7194 36.8481 15.0937 33.8772 12.1228C30.9064 9.152 27.2807 7.66659 23.0002 7.66659C18.7196 7.66659 15.0939 9.152 12.1231 12.1228C9.15225 15.0937 7.66683 18.7194 7.66683 22.9999C7.66683 27.2805 9.15225 30.9062 12.1231 33.877C15.0939 36.8478 18.7196 38.3333 23.0002 38.3333Z" fill="#06AEAB"/>
</svg>
