<svg width="42" height="42" viewBox="0 0 42 42" fill="#4392D3" xmlns="http://www.w3.org/2000/svg">
<path d="M21 15.75C19.6076 15.75 18.2723 16.3031 17.2877 17.2877C16.3031 18.2723 15.75 19.6076 15.75 21C15.75 22.3924 16.3031 23.7277 17.2877 24.7123C18.2723 25.6969 19.6076 26.25 21 26.25C22.3924 26.25 23.7277 25.6969 24.7123 24.7123C25.6969 23.7277 26.25 22.3924 26.25 21C26.25 19.6076 25.6969 18.2723 24.7123 17.2877C23.7277 16.3031 22.3924 15.75 21 15.75ZM21 29.75C18.6794 29.75 16.4538 28.8281 14.8128 27.1872C13.1719 25.5462 12.25 23.3206 12.25 21C12.25 18.6794 13.1719 16.4538 14.8128 14.8128C16.4538 13.1719 18.6794 12.25 21 12.25C23.3206 12.25 25.5462 13.1719 27.1872 14.8128C28.8281 16.4538 29.75 18.6794 29.75 21C29.75 23.3206 28.8281 25.5462 27.1872 27.1872C25.5462 28.8281 23.3206 29.75 21 29.75ZM21 7.875C12.25 7.875 4.7775 13.3175 1.75 21C4.7775 28.6825 12.25 34.125 21 34.125C29.75 34.125 37.2225 28.6825 40.25 21C37.2225 13.3175 29.75 7.875 21 7.875Z" fill="#4392D3"/>
</svg>
