<svg width="42" height="42" viewBox="0 0 42 42" fill="none" xmlns="http://www.w3.org/2000/svg">
<path d="M23.4404 9.57317C22.6393 9.48651 21.8252 9.43685 21 9.42449C17.3941 9.44049 13.6562 10.3176 10.118 11.9983C7.49102 13.2975 4.93199 15.1318 2.7096 17.3943C1.61812 18.5493 0.225085 20.2217 0 22.006C0.0266 23.5517 1.68536 25.4595 2.7096 26.6178C4.7936 28.7915 7.28599 30.5732 10.118 32.0138C10.2143 32.0606 10.3109 32.1067 10.4077 32.1523L7.78019 36.7408L11.3504 38.8508L30.6499 5.24969L27.2134 3.14941L23.4404 9.57317ZM31.5897 11.8649L28.9673 16.4099C30.1737 17.9773 30.8899 19.9101 30.8899 22.006C30.8899 27.23 26.4616 31.4653 20.9974 31.4653C20.7612 31.4653 20.5323 31.4398 20.3001 31.4242L18.5647 34.4286C19.365 34.5143 20.1743 34.5768 21 34.5876C24.6093 34.5714 28.3451 33.6841 31.8794 32.0138C34.5064 30.7146 37.068 28.8803 39.2904 26.6178C40.3819 25.4628 41.7748 23.7904 42 22.006C41.9734 20.4604 40.3146 18.5526 39.2904 17.3943C37.2064 15.2206 34.7114 13.4389 31.8794 11.9982C31.7838 11.9518 31.6859 11.9102 31.5897 11.8649ZM20.9974 12.5468C21.2371 12.5468 21.4748 12.5564 21.7101 12.5725L19.6772 16.0921C16.8243 16.6705 14.6836 19.0979 14.6836 22.0035C14.6836 22.7334 14.818 23.4322 15.0655 24.0799C15.0658 24.0806 15.0653 24.0817 15.0655 24.0825L13.0276 27.6124C11.8183 26.0435 11.1049 24.1043 11.1049 22.006C11.105 16.7821 15.5333 12.5468 20.9974 12.5468ZM26.9114 19.9681L22.3305 27.9046C25.1681 27.3153 27.2934 24.899 27.2934 22.0035C27.2934 21.2869 27.1503 20.6056 26.9114 19.9681Z" fill="#4392D3"/>
</svg>

