<svg width="30" height="30" viewBox="0 0 48 48" fill="none" xmlns="http://www.w3.org/2000/svg">
<path d="M8.86198 25.644L34.862 43.644C35.162 43.8516 35.5132 43.9732 35.8774 43.9955C36.2415 44.0179 36.6049 43.9402 36.9281 43.7709C37.2513 43.6016 37.5221 43.3471 37.711 43.0349C37.8999 42.7228 37.9999 42.3649 38 42V5.99998C38.0002 5.63494 37.9006 5.27679 37.7118 4.96435C37.523 4.65191 37.2523 4.39709 36.929 4.22753C36.6057 4.05796 36.2422 3.9801 35.8779 4.00239C35.5135 4.02468 35.1622 4.14627 34.862 4.35398L8.86198 22.354C8.5971 22.5388 8.38078 22.7849 8.2314 23.0713C8.08203 23.3577 8.00403 23.676 8.00403 23.999C8.00403 24.322 8.08203 24.6402 8.2314 24.9266C8.38078 25.213 8.5971 25.4591 8.86198 25.644Z" fill="#90DCE7"/>
</svg>
