<svg width="30" height="30" viewBox="0 0 48 48" fill="none" xmlns="http://www.w3.org/2000/svg">
<path d="M11.072 43.772C11.3953 43.9411 11.7587 44.0186 12.1228 43.9961C12.487 43.9735 12.8381 43.8518 13.138 43.644L39.138 25.644C39.4037 25.4599 39.6208 25.2142 39.7707 24.9279C39.9207 24.6416 39.999 24.3232 39.999 24C39.999 23.6768 39.9207 23.3584 39.7707 23.0721C39.6208 22.7858 39.4037 22.5401 39.138 22.356L13.138 4.356C12.8379 4.14838 12.4868 4.02681 12.1226 4.00443C11.7584 3.98206 11.3951 4.05975 11.0719 4.22908C10.7487 4.3984 10.4779 4.65292 10.289 4.96508C10.1001 5.27723 10.0001 5.63512 10 6V42C9.99994 42.3651 10.0998 42.7232 10.2888 43.0356C10.4777 43.3479 10.7486 43.6026 11.072 43.772Z" fill="#90DCE7"/>
</svg>
